solid OpenSCAD_Model
  facet normal 0 0 -1
    outer loop
      vertex -69.5 -38.6 -1
      vertex -69.5 38.6 -1
      vertex -69.127 -40.4751 -1
    endloop
  endfacet
  facet normal 0 0 -1
    outer loop
      vertex -69.127 -40.4751 -1
      vertex -69.5 38.6 -1
      vertex -69.127 40.4751 -1
    endloop
  endfacet
  facet normal 0 0 -1
    outer loop
      vertex -69.127 -40.4751 -1
      vertex -69.127 40.4751 -1
      vertex -68.0648 42.0648 -1
    endloop
  endfacet
  facet normal 0 0 -1
    outer loop
      vertex -67.05 38.6 -1
      vertex -68.0648 42.0648 -1
      vertex -66.4751 43.127 -1
    endloop
  endfacet
  facet normal 0 0 -1
    outer loop
      vertex -66.3324 40.3324 -1
      vertex -66.4751 43.127 -1
      vertex -64.6 43.5 -1
    endloop
  endfacet
  facet normal 0 0 -1
    outer loop
      vertex -62.8676 40.3324 -1
      vertex -64.6 43.5 -1
      vertex 64.6 43.5 -1
    endloop
  endfacet
  facet normal 0 0 -1
    outer loop
      vertex 64.6 41.05 -1
      vertex 66.4751 43.127 -1
      vertex 68.0648 42.0648 -1
    endloop
  endfacet
  facet normal 0 0 -1
    outer loop
      vertex 66.3324 40.3324 -1
      vertex 68.0648 42.0648 -1
      vertex 69.127 40.4751 -1
    endloop
  endfacet
  facet normal 0 0 -1
    outer loop
      vertex -62.15 -38.6 -1
      vertex 69.5 38.6 -1
      vertex 62.15 -38.6 -1
    endloop
  endfacet
  facet normal 0 0 -1
    outer loop
      vertex 66.3324 -40.3324 -1
      vertex 69.5 -38.6 -1
      vertex 69.127 -40.4751 -1
    endloop
  endfacet
  facet normal 0 0 -1
    outer loop
      vertex 64.6 -41.05 -1
      vertex 69.127 -40.4751 -1
      vertex 68.0648 -42.0648 -1
    endloop
  endfacet
  facet normal 0 0 -1
    outer loop
      vertex -62.8676 -40.3324 -1
      vertex 68.0648 -42.0648 -1
      vertex 66.4751 -43.127 -1
    endloop
  endfacet
  facet normal 0 0 -1
    outer loop
      vertex -62.8676 -40.3324 -1
      vertex 64.6 -41.05 -1
      vertex 68.0648 -42.0648 -1
    endloop
  endfacet
  facet normal 0 0 -1
    outer loop
      vertex -64.6 -41.05 -1
      vertex 64.6 -43.5 -1
      vertex -64.6 -43.5 -1
    endloop
  endfacet
  facet normal 0 0 -1
    outer loop
      vertex -69.127 -40.4751 -1
      vertex -64.6 -43.5 -1
      vertex -66.4751 -43.127 -1
    endloop
  endfacet
  facet normal 0 0 -1
    outer loop
      vertex -69.127 -40.4751 -1
      vertex -66.4751 -43.127 -1
      vertex -68.0648 -42.0648 -1
    endloop
  endfacet
  facet normal 0 0 -1
    outer loop
      vertex -64.6 -41.05 -1
      vertex -69.127 -40.4751 -1
      vertex -66.3324 -40.3324 -1
    endloop
  endfacet
  facet normal 0 0 -1
    outer loop
      vertex 66.3324 -40.3324 -1
      vertex 69.127 -40.4751 -1
      vertex 64.6 -41.05 -1
    endloop
  endfacet
  facet normal 0 0 -1
    outer loop
      vertex -69.127 -40.4751 -1
      vertex -64.6 -41.05 -1
      vertex -64.6 -43.5 -1
    endloop
  endfacet
  facet normal 0 0 -1
    outer loop
      vertex -64.6 -36.15 -1
      vertex 62.8676 36.8676 -1
      vertex -62.8676 -36.8676 -1
    endloop
  endfacet
  facet normal 0 0 -1
    outer loop
      vertex -64.6 -36.15 -1
      vertex 66.4751 43.127 -1
      vertex 62.8676 40.3324 -1
    endloop
  endfacet
  facet normal 0 0 -1
    outer loop
      vertex 66.3324 -36.8676 -1
      vertex 69.5 38.6 -1
      vertex 67.05 -38.6 -1
    endloop
  endfacet
  facet normal 0 0 -1
    outer loop
      vertex 64.6 -41.05 -1
      vertex -62.8676 -40.3324 -1
      vertex 62.8676 -40.3324 -1
    endloop
  endfacet
  facet normal 0 0 -1
    outer loop
      vertex -66.3324 -36.8676 -1
      vertex -64.6 36.15 -1
      vertex -64.6 -36.15 -1
    endloop
  endfacet
  facet normal 0 0 -1
    outer loop
      vertex -67.05 38.6 -1
      vertex -66.4751 43.127 -1
      vertex -66.3324 40.3324 -1
    endloop
  endfacet
  facet normal 0 0 -1
    outer loop
      vertex -69.127 -40.4751 -1
      vertex -68.0648 42.0648 -1
      vertex -67.05 38.6 -1
    endloop
  endfacet
  facet normal 0 0 -1
    outer loop
      vertex -66.3324 36.8676 -1
      vertex -69.127 -40.4751 -1
      vertex -67.05 38.6 -1
    endloop
  endfacet
  facet normal 0 0 -1
    outer loop
      vertex -64.6 41.05 -1
      vertex -64.6 43.5 -1
      vertex -62.8676 40.3324 -1
    endloop
  endfacet
  facet normal 0 0 -1
    outer loop
      vertex -64.6 -36.15 -1
      vertex -64.6 36.15 -1
      vertex 64.6 43.5 -1
    endloop
  endfacet
  facet normal 0 0 -1
    outer loop
      vertex -66.3324 40.3324 -1
      vertex -64.6 43.5 -1
      vertex -64.6 41.05 -1
    endloop
  endfacet
  facet normal 0 0 -1
    outer loop
      vertex -64.6 36.15 -1
      vertex -62.8676 36.8676 -1
      vertex 64.6 43.5 -1
    endloop
  endfacet
  facet normal 0 0 -1
    outer loop
      vertex -62.8676 36.8676 -1
      vertex -62.15 38.6 -1
      vertex 64.6 43.5 -1
    endloop
  endfacet
  facet normal 0 0 -1
    outer loop
      vertex -62.15 38.6 -1
      vertex -62.8676 40.3324 -1
      vertex 64.6 43.5 -1
    endloop
  endfacet
  facet normal 0 0 -1
    outer loop
      vertex -64.6 36.15 -1
      vertex -69.127 -40.4751 -1
      vertex -66.3324 36.8676 -1
    endloop
  endfacet
  facet normal 0 0 -1
    outer loop
      vertex 62.8676 -40.3324 -1
      vertex -62.8676 -40.3324 -1
      vertex 62.15 -38.6 -1
    endloop
  endfacet
  facet normal 0 0 -1
    outer loop
      vertex -62.8676 -36.8676 -1
      vertex 69.5 38.6 -1
      vertex -62.15 -38.6 -1
    endloop
  endfacet
  facet normal 0 0 -1
    outer loop
      vertex 67.05 -38.6 -1
      vertex 69.5 38.6 -1
      vertex 69.5 -38.6 -1
    endloop
  endfacet
  facet normal 0 0 -1
    outer loop
      vertex -62.8676 -40.3324 -1
      vertex 64.6 -43.5 -1
      vertex -64.6 -41.05 -1
    endloop
  endfacet
  facet normal 0 0 -1
    outer loop
      vertex -62.8676 -40.3324 -1
      vertex 66.4751 -43.127 -1
      vertex 64.6 -43.5 -1
    endloop
  endfacet
  facet normal 0 0 -1
    outer loop
      vertex 67.05 -38.6 -1
      vertex 69.5 -38.6 -1
      vertex 66.3324 -40.3324 -1
    endloop
  endfacet
  facet normal 0 0 -1
    outer loop
      vertex -64.6 -36.15 -1
      vertex 62.8676 40.3324 -1
      vertex 62.15 38.6 -1
    endloop
  endfacet
  facet normal 0 0 -1
    outer loop
      vertex 64.6 -36.15 -1
      vertex 69.5 38.6 -1
      vertex 66.3324 -36.8676 -1
    endloop
  endfacet
  facet normal 0 0 -1
    outer loop
      vertex 62.8676 -36.8676 -1
      vertex 69.5 38.6 -1
      vertex 64.6 -36.15 -1
    endloop
  endfacet
  facet normal 0 0 -1
    outer loop
      vertex 62.15 -38.6 -1
      vertex 69.5 38.6 -1
      vertex 62.8676 -36.8676 -1
    endloop
  endfacet
  facet normal 0 0 -1
    outer loop
      vertex 64.6 41.05 -1
      vertex 68.0648 42.0648 -1
      vertex 66.3324 40.3324 -1
    endloop
  endfacet
  facet normal 0 0 -1
    outer loop
      vertex 66.3324 40.3324 -1
      vertex 69.127 40.4751 -1
      vertex 67.05 38.6 -1
    endloop
  endfacet
  facet normal 0 0 -1
    outer loop
      vertex -62.8676 -36.8676 -1
      vertex 64.6 36.15 -1
      vertex 66.3324 36.8676 -1
    endloop
  endfacet
  facet normal 0 0 -1
    outer loop
      vertex -62.8676 -36.8676 -1
      vertex 66.3324 36.8676 -1
      vertex 69.5 38.6 -1
    endloop
  endfacet
  facet normal 0 0 -1
    outer loop
      vertex 67.05 38.6 -1
      vertex 69.5 38.6 -1
      vertex 66.3324 36.8676 -1
    endloop
  endfacet
  facet normal 0 0 -1
    outer loop
      vertex 67.05 38.6 -1
      vertex 69.127 40.4751 -1
      vertex 69.5 38.6 -1
    endloop
  endfacet
  facet normal 0 0 -1
    outer loop
      vertex -62.15 -38.6 -1
      vertex 62.15 -38.6 -1
      vertex -62.8676 -40.3324 -1
    endloop
  endfacet
  facet normal 0 0 -1
    outer loop
      vertex 62.8676 40.3324 -1
      vertex 66.4751 43.127 -1
      vertex 64.6 41.05 -1
    endloop
  endfacet
  facet normal 0 0 -1
    outer loop
      vertex 64.6 36.15 -1
      vertex -62.8676 -36.8676 -1
      vertex 62.8676 36.8676 -1
    endloop
  endfacet
  facet normal 0 0 -1
    outer loop
      vertex -66.3324 -40.3324 -1
      vertex -69.127 -40.4751 -1
      vertex -67.05 -38.6 -1
    endloop
  endfacet
  facet normal 0 0 -1
    outer loop
      vertex -64.6 36.15 -1
      vertex -66.3324 -36.8676 -1
      vertex -67.05 -38.6 -1
    endloop
  endfacet
  facet normal 0 0 -1
    outer loop
      vertex -64.6 36.15 -1
      vertex -67.05 -38.6 -1
      vertex -69.127 -40.4751 -1
    endloop
  endfacet
  facet normal 0 0 -1
    outer loop
      vertex 62.8676 36.8676 -1
      vertex -64.6 -36.15 -1
      vertex 62.15 38.6 -1
    endloop
  endfacet
  facet normal 0 0 -1
    outer loop
      vertex -64.6 -36.15 -1
      vertex 64.6 43.5 -1
      vertex 66.4751 43.127 -1
    endloop
  endfacet
  facet normal -1 0 0
    outer loop
      vertex -69.5 -38.6 -1
      vertex -69.5 -38.6 1
      vertex -69.5 38.6 -1
    endloop
  endfacet
  facet normal -1 0 0
    outer loop
      vertex -69.5 38.6 -1
      vertex -69.5 -38.6 1
      vertex -69.5 38.6 1
    endloop
  endfacet
  facet normal -0.980785 -0.19509 0
    outer loop
      vertex -69.5 -38.6 -1
      vertex -69.127 -40.4751 -1
      vertex -69.5 -38.6 1
    endloop
  endfacet
  facet normal -0.980785 -0.19509 0
    outer loop
      vertex -69.5 -38.6 1
      vertex -69.127 -40.4751 -1
      vertex -69.127 -40.4751 1
    endloop
  endfacet
  facet normal -0.831469 -0.555571 0
    outer loop
      vertex -69.127 -40.4751 -1
      vertex -68.0648 -42.0648 -1
      vertex -69.127 -40.4751 1
    endloop
  endfacet
  facet normal -0.831469 -0.555571 0
    outer loop
      vertex -69.127 -40.4751 1
      vertex -68.0648 -42.0648 -1
      vertex -68.0648 -42.0648 1
    endloop
  endfacet
  facet normal -0.555571 -0.831469 0
    outer loop
      vertex -68.0648 -42.0648 1
      vertex -68.0648 -42.0648 -1
      vertex -66.4751 -43.127 -1
    endloop
  endfacet
  facet normal -0.555571 -0.831469 0
    outer loop
      vertex -66.4751 -43.127 1
      vertex -68.0648 -42.0648 1
      vertex -66.4751 -43.127 -1
    endloop
  endfacet
  facet normal -0.19509 -0.980785 0
    outer loop
      vertex -66.4751 -43.127 1
      vertex -66.4751 -43.127 -1
      vertex -64.6 -43.5 -1
    endloop
  endfacet
  facet normal -0.19509 -0.980785 0
    outer loop
      vertex -64.6 -43.5 1
      vertex -66.4751 -43.127 1
      vertex -64.6 -43.5 -1
    endloop
  endfacet
  facet normal 0 -1 0
    outer loop
      vertex -64.6 -43.5 1
      vertex -64.6 -43.5 -1
      vertex 64.6 -43.5 -1
    endloop
  endfacet
  facet normal 0 -1 0
    outer loop
      vertex 64.6 -43.5 1
      vertex -64.6 -43.5 1
      vertex 64.6 -43.5 -1
    endloop
  endfacet
  facet normal 0.19509 -0.980785 0
    outer loop
      vertex 64.6 -43.5 1
      vertex 64.6 -43.5 -1
      vertex 66.4751 -43.127 -1
    endloop
  endfacet
  facet normal 0.19509 -0.980785 0
    outer loop
      vertex 66.4751 -43.127 1
      vertex 64.6 -43.5 1
      vertex 66.4751 -43.127 -1
    endloop
  endfacet
  facet normal 0.555571 -0.831469 0
    outer loop
      vertex 66.4751 -43.127 1
      vertex 66.4751 -43.127 -1
      vertex 68.0648 -42.0648 -1
    endloop
  endfacet
  facet normal 0.555571 -0.831469 0
    outer loop
      vertex 68.0648 -42.0648 1
      vertex 66.4751 -43.127 1
      vertex 68.0648 -42.0648 -1
    endloop
  endfacet
  facet normal 0.831469 -0.555571 0
    outer loop
      vertex 68.0648 -42.0648 1
      vertex 68.0648 -42.0648 -1
      vertex 69.127 -40.4751 -1
    endloop
  endfacet
  facet normal 0.831469 -0.555571 0
    outer loop
      vertex 69.127 -40.4751 1
      vertex 68.0648 -42.0648 1
      vertex 69.127 -40.4751 -1
    endloop
  endfacet
  facet normal 0.980785 -0.19509 0
    outer loop
      vertex 69.127 -40.4751 1
      vertex 69.127 -40.4751 -1
      vertex 69.5 -38.6 -1
    endloop
  endfacet
  facet normal 0.980785 -0.19509 0
    outer loop
      vertex 69.5 -38.6 1
      vertex 69.127 -40.4751 1
      vertex 69.5 -38.6 -1
    endloop
  endfacet
  facet normal 1 0 0
    outer loop
      vertex 69.5 -38.6 1
      vertex 69.5 -38.6 -1
      vertex 69.5 38.6 -1
    endloop
  endfacet
  facet normal 1 0 0
    outer loop
      vertex 69.5 38.6 1
      vertex 69.5 -38.6 1
      vertex 69.5 38.6 -1
    endloop
  endfacet
  facet normal 0.980785 0.19509 0
    outer loop
      vertex 69.5 38.6 -1
      vertex 69.127 40.4751 -1
      vertex 69.127 40.4751 1
    endloop
  endfacet
  facet normal 0.980785 0.19509 0
    outer loop
      vertex 69.5 38.6 1
      vertex 69.5 38.6 -1
      vertex 69.127 40.4751 1
    endloop
  endfacet
  facet normal 0.831469 0.555571 0
    outer loop
      vertex 69.127 40.4751 -1
      vertex 68.0648 42.0648 -1
      vertex 68.0648 42.0648 1
    endloop
  endfacet
  facet normal 0.831469 0.555571 0
    outer loop
      vertex 69.127 40.4751 1
      vertex 69.127 40.4751 -1
      vertex 68.0648 42.0648 1
    endloop
  endfacet
  facet normal 0.555571 0.831469 0
    outer loop
      vertex 66.4751 43.127 -1
      vertex 66.4751 43.127 1
      vertex 68.0648 42.0648 -1
    endloop
  endfacet
  facet normal 0.555571 0.831469 0
    outer loop
      vertex 68.0648 42.0648 -1
      vertex 66.4751 43.127 1
      vertex 68.0648 42.0648 1
    endloop
  endfacet
  facet normal 0.19509 0.980785 0
    outer loop
      vertex 64.6 43.5 -1
      vertex 64.6 43.5 1
      vertex 66.4751 43.127 -1
    endloop
  endfacet
  facet normal 0.19509 0.980785 0
    outer loop
      vertex 66.4751 43.127 -1
      vertex 64.6 43.5 1
      vertex 66.4751 43.127 1
    endloop
  endfacet
  facet normal 0 1 0
    outer loop
      vertex -64.6 43.5 -1
      vertex -64.6 43.5 1
      vertex 64.6 43.5 -1
    endloop
  endfacet
  facet normal 0 1 0
    outer loop
      vertex 64.6 43.5 -1
      vertex -64.6 43.5 1
      vertex 64.6 43.5 1
    endloop
  endfacet
  facet normal -0.19509 0.980785 0
    outer loop
      vertex -66.4751 43.127 -1
      vertex -66.4751 43.127 1
      vertex -64.6 43.5 -1
    endloop
  endfacet
  facet normal -0.19509 0.980785 0
    outer loop
      vertex -64.6 43.5 -1
      vertex -66.4751 43.127 1
      vertex -64.6 43.5 1
    endloop
  endfacet
  facet normal -0.555571 0.831469 0
    outer loop
      vertex -68.0648 42.0648 -1
      vertex -68.0648 42.0648 1
      vertex -66.4751 43.127 -1
    endloop
  endfacet
  facet normal -0.555571 0.831469 0
    outer loop
      vertex -66.4751 43.127 -1
      vertex -68.0648 42.0648 1
      vertex -66.4751 43.127 1
    endloop
  endfacet
  facet normal -0.831469 0.555571 0
    outer loop
      vertex -69.127 40.4751 -1
      vertex -69.127 40.4751 1
      vertex -68.0648 42.0648 -1
    endloop
  endfacet
  facet normal -0.831469 0.555571 0
    outer loop
      vertex -68.0648 42.0648 -1
      vertex -69.127 40.4751 1
      vertex -68.0648 42.0648 1
    endloop
  endfacet
  facet normal -0.980785 0.19509 0
    outer loop
      vertex -69.5 38.6 -1
      vertex -69.5 38.6 1
      vertex -69.127 40.4751 -1
    endloop
  endfacet
  facet normal -0.980785 0.19509 0
    outer loop
      vertex -69.127 40.4751 -1
      vertex -69.5 38.6 1
      vertex -69.127 40.4751 1
    endloop
  endfacet
  facet normal 0.92388 0.382683 0
    outer loop
      vertex -67.05 -38.6 1
      vertex -66.3324 -40.3324 1
      vertex -66.3324 -40.3324 -1
    endloop
  endfacet
  facet normal 0.92388 0.382683 0
    outer loop
      vertex -67.05 -38.6 -1
      vertex -67.05 -38.6 1
      vertex -66.3324 -40.3324 -1
    endloop
  endfacet
  facet normal 0.92388 -0.382683 0
    outer loop
      vertex -66.3324 -36.8676 -1
      vertex -66.3324 -36.8676 1
      vertex -67.05 -38.6 1
    endloop
  endfacet
  facet normal 0.92388 -0.382683 0
    outer loop
      vertex -67.05 -38.6 -1
      vertex -66.3324 -36.8676 -1
      vertex -67.05 -38.6 1
    endloop
  endfacet
  facet normal 0.382683 -0.92388 0
    outer loop
      vertex -64.6 -36.15 -1
      vertex -64.6 -36.15 1
      vertex -66.3324 -36.8676 1
    endloop
  endfacet
  facet normal 0.382683 -0.92388 0
    outer loop
      vertex -66.3324 -36.8676 -1
      vertex -64.6 -36.15 -1
      vertex -66.3324 -36.8676 1
    endloop
  endfacet
  facet normal -0.382683 -0.92388 0
    outer loop
      vertex -62.8676 -36.8676 -1
      vertex -62.8676 -36.8676 1
      vertex -64.6 -36.15 1
    endloop
  endfacet
  facet normal -0.382683 -0.92388 0
    outer loop
      vertex -64.6 -36.15 -1
      vertex -62.8676 -36.8676 -1
      vertex -64.6 -36.15 1
    endloop
  endfacet
  facet normal -0.92388 -0.382683 0
    outer loop
      vertex -62.15 -38.6 1
      vertex -62.8676 -36.8676 1
      vertex -62.15 -38.6 -1
    endloop
  endfacet
  facet normal -0.92388 -0.382683 0
    outer loop
      vertex -62.15 -38.6 -1
      vertex -62.8676 -36.8676 1
      vertex -62.8676 -36.8676 -1
    endloop
  endfacet
  facet normal -0.92388 0.382683 0
    outer loop
      vertex -62.15 -38.6 1
      vertex -62.15 -38.6 -1
      vertex -62.8676 -40.3324 1
    endloop
  endfacet
  facet normal -0.92388 0.382683 0
    outer loop
      vertex -62.8676 -40.3324 1
      vertex -62.15 -38.6 -1
      vertex -62.8676 -40.3324 -1
    endloop
  endfacet
  facet normal -0.382683 0.92388 0
    outer loop
      vertex -62.8676 -40.3324 1
      vertex -62.8676 -40.3324 -1
      vertex -64.6 -41.05 1
    endloop
  endfacet
  facet normal -0.382683 0.92388 0
    outer loop
      vertex -64.6 -41.05 1
      vertex -62.8676 -40.3324 -1
      vertex -64.6 -41.05 -1
    endloop
  endfacet
  facet normal 0.382683 0.92388 0
    outer loop
      vertex -64.6 -41.05 1
      vertex -64.6 -41.05 -1
      vertex -66.3324 -40.3324 1
    endloop
  endfacet
  facet normal 0.382683 0.92388 0
    outer loop
      vertex -66.3324 -40.3324 1
      vertex -64.6 -41.05 -1
      vertex -66.3324 -40.3324 -1
    endloop
  endfacet
  facet normal 0.92388 -0.382683 0
    outer loop
      vertex -66.3324 40.3324 -1
      vertex -66.3324 40.3324 1
      vertex -67.05 38.6 1
    endloop
  endfacet
  facet normal 0.92388 -0.382683 0
    outer loop
      vertex -67.05 38.6 -1
      vertex -66.3324 40.3324 -1
      vertex -67.05 38.6 1
    endloop
  endfacet
  facet normal 0.92388 0.382683 0
    outer loop
      vertex -67.05 38.6 1
      vertex -66.3324 36.8676 1
      vertex -66.3324 36.8676 -1
    endloop
  endfacet
  facet normal 0.92388 0.382683 0
    outer loop
      vertex -67.05 38.6 -1
      vertex -67.05 38.6 1
      vertex -66.3324 36.8676 -1
    endloop
  endfacet
  facet normal 0.382683 -0.92388 0
    outer loop
      vertex -64.6 41.05 -1
      vertex -64.6 41.05 1
      vertex -66.3324 40.3324 1
    endloop
  endfacet
  facet normal 0.382683 -0.92388 0
    outer loop
      vertex -66.3324 40.3324 -1
      vertex -64.6 41.05 -1
      vertex -66.3324 40.3324 1
    endloop
  endfacet
  facet normal -0.382683 -0.92388 0
    outer loop
      vertex -62.8676 40.3324 -1
      vertex -62.8676 40.3324 1
      vertex -64.6 41.05 1
    endloop
  endfacet
  facet normal -0.382683 -0.92388 0
    outer loop
      vertex -64.6 41.05 -1
      vertex -62.8676 40.3324 -1
      vertex -64.6 41.05 1
    endloop
  endfacet
  facet normal -0.92388 -0.382683 0
    outer loop
      vertex -62.15 38.6 1
      vertex -62.8676 40.3324 1
      vertex -62.15 38.6 -1
    endloop
  endfacet
  facet normal -0.92388 -0.382683 0
    outer loop
      vertex -62.15 38.6 -1
      vertex -62.8676 40.3324 1
      vertex -62.8676 40.3324 -1
    endloop
  endfacet
  facet normal -0.92388 0.382683 0
    outer loop
      vertex -62.15 38.6 1
      vertex -62.15 38.6 -1
      vertex -62.8676 36.8676 1
    endloop
  endfacet
  facet normal -0.92388 0.382683 0
    outer loop
      vertex -62.8676 36.8676 1
      vertex -62.15 38.6 -1
      vertex -62.8676 36.8676 -1
    endloop
  endfacet
  facet normal -0.382683 0.92388 0
    outer loop
      vertex -62.8676 36.8676 1
      vertex -62.8676 36.8676 -1
      vertex -64.6 36.15 1
    endloop
  endfacet
  facet normal -0.382683 0.92388 0
    outer loop
      vertex -64.6 36.15 1
      vertex -62.8676 36.8676 -1
      vertex -64.6 36.15 -1
    endloop
  endfacet
  facet normal 0.382683 0.92388 0
    outer loop
      vertex -64.6 36.15 1
      vertex -64.6 36.15 -1
      vertex -66.3324 36.8676 1
    endloop
  endfacet
  facet normal 0.382683 0.92388 0
    outer loop
      vertex -66.3324 36.8676 1
      vertex -64.6 36.15 -1
      vertex -66.3324 36.8676 -1
    endloop
  endfacet
  facet normal 0.92388 -0.382683 0
    outer loop
      vertex 62.8676 -36.8676 -1
      vertex 62.8676 -36.8676 1
      vertex 62.15 -38.6 1
    endloop
  endfacet
  facet normal 0.92388 -0.382683 0
    outer loop
      vertex 62.15 -38.6 -1
      vertex 62.8676 -36.8676 -1
      vertex 62.15 -38.6 1
    endloop
  endfacet
  facet normal 0.92388 0.382683 0
    outer loop
      vertex 62.15 -38.6 1
      vertex 62.8676 -40.3324 1
      vertex 62.8676 -40.3324 -1
    endloop
  endfacet
  facet normal 0.92388 0.382683 0
    outer loop
      vertex 62.15 -38.6 -1
      vertex 62.15 -38.6 1
      vertex 62.8676 -40.3324 -1
    endloop
  endfacet
  facet normal 0.382683 -0.92388 0
    outer loop
      vertex 64.6 -36.15 -1
      vertex 64.6 -36.15 1
      vertex 62.8676 -36.8676 1
    endloop
  endfacet
  facet normal 0.382683 -0.92388 0
    outer loop
      vertex 62.8676 -36.8676 -1
      vertex 64.6 -36.15 -1
      vertex 62.8676 -36.8676 1
    endloop
  endfacet
  facet normal -0.382683 -0.92388 0
    outer loop
      vertex 66.3324 -36.8676 -1
      vertex 66.3324 -36.8676 1
      vertex 64.6 -36.15 1
    endloop
  endfacet
  facet normal -0.382683 -0.92388 0
    outer loop
      vertex 64.6 -36.15 -1
      vertex 66.3324 -36.8676 -1
      vertex 64.6 -36.15 1
    endloop
  endfacet
  facet normal -0.92388 -0.382683 0
    outer loop
      vertex 67.05 -38.6 1
      vertex 66.3324 -36.8676 1
      vertex 67.05 -38.6 -1
    endloop
  endfacet
  facet normal -0.92388 -0.382683 0
    outer loop
      vertex 67.05 -38.6 -1
      vertex 66.3324 -36.8676 1
      vertex 66.3324 -36.8676 -1
    endloop
  endfacet
  facet normal -0.92388 0.382683 0
    outer loop
      vertex 67.05 -38.6 1
      vertex 67.05 -38.6 -1
      vertex 66.3324 -40.3324 1
    endloop
  endfacet
  facet normal -0.92388 0.382683 0
    outer loop
      vertex 66.3324 -40.3324 1
      vertex 67.05 -38.6 -1
      vertex 66.3324 -40.3324 -1
    endloop
  endfacet
  facet normal -0.382683 0.92388 0
    outer loop
      vertex 66.3324 -40.3324 1
      vertex 66.3324 -40.3324 -1
      vertex 64.6 -41.05 1
    endloop
  endfacet
  facet normal -0.382683 0.92388 0
    outer loop
      vertex 64.6 -41.05 1
      vertex 66.3324 -40.3324 -1
      vertex 64.6 -41.05 -1
    endloop
  endfacet
  facet normal 0.382683 0.92388 0
    outer loop
      vertex 64.6 -41.05 1
      vertex 64.6 -41.05 -1
      vertex 62.8676 -40.3324 1
    endloop
  endfacet
  facet normal 0.382683 0.92388 0
    outer loop
      vertex 62.8676 -40.3324 1
      vertex 64.6 -41.05 -1
      vertex 62.8676 -40.3324 -1
    endloop
  endfacet
  facet normal 0.92388 0.382683 0
    outer loop
      vertex 62.15 38.6 1
      vertex 62.8676 36.8676 1
      vertex 62.8676 36.8676 -1
    endloop
  endfacet
  facet normal 0.92388 0.382683 0
    outer loop
      vertex 62.15 38.6 -1
      vertex 62.15 38.6 1
      vertex 62.8676 36.8676 -1
    endloop
  endfacet
  facet normal 0.92388 -0.382683 0
    outer loop
      vertex 62.8676 40.3324 -1
      vertex 62.8676 40.3324 1
      vertex 62.15 38.6 1
    endloop
  endfacet
  facet normal 0.92388 -0.382683 0
    outer loop
      vertex 62.15 38.6 -1
      vertex 62.8676 40.3324 -1
      vertex 62.15 38.6 1
    endloop
  endfacet
  facet normal 0.382683 -0.92388 0
    outer loop
      vertex 64.6 41.05 -1
      vertex 64.6 41.05 1
      vertex 62.8676 40.3324 1
    endloop
  endfacet
  facet normal 0.382683 -0.92388 0
    outer loop
      vertex 62.8676 40.3324 -1
      vertex 64.6 41.05 -1
      vertex 62.8676 40.3324 1
    endloop
  endfacet
  facet normal -0.382683 -0.92388 0
    outer loop
      vertex 66.3324 40.3324 -1
      vertex 66.3324 40.3324 1
      vertex 64.6 41.05 1
    endloop
  endfacet
  facet normal -0.382683 -0.92388 0
    outer loop
      vertex 64.6 41.05 -1
      vertex 66.3324 40.3324 -1
      vertex 64.6 41.05 1
    endloop
  endfacet
  facet normal -0.92388 -0.382683 0
    outer loop
      vertex 67.05 38.6 1
      vertex 66.3324 40.3324 1
      vertex 67.05 38.6 -1
    endloop
  endfacet
  facet normal -0.92388 -0.382683 0
    outer loop
      vertex 67.05 38.6 -1
      vertex 66.3324 40.3324 1
      vertex 66.3324 40.3324 -1
    endloop
  endfacet
  facet normal -0.92388 0.382683 0
    outer loop
      vertex 67.05 38.6 1
      vertex 67.05 38.6 -1
      vertex 66.3324 36.8676 1
    endloop
  endfacet
  facet normal -0.92388 0.382683 0
    outer loop
      vertex 66.3324 36.8676 1
      vertex 67.05 38.6 -1
      vertex 66.3324 36.8676 -1
    endloop
  endfacet
  facet normal -0.382683 0.92388 0
    outer loop
      vertex 66.3324 36.8676 1
      vertex 66.3324 36.8676 -1
      vertex 64.6 36.15 1
    endloop
  endfacet
  facet normal -0.382683 0.92388 0
    outer loop
      vertex 64.6 36.15 1
      vertex 66.3324 36.8676 -1
      vertex 64.6 36.15 -1
    endloop
  endfacet
  facet normal 0.382683 0.92388 0
    outer loop
      vertex 64.6 36.15 1
      vertex 64.6 36.15 -1
      vertex 62.8676 36.8676 1
    endloop
  endfacet
  facet normal 0.382683 0.92388 0
    outer loop
      vertex 62.8676 36.8676 1
      vertex 64.6 36.15 -1
      vertex 62.8676 36.8676 -1
    endloop
  endfacet
  facet normal 0 0 1
    outer loop
      vertex -69.5 38.6 1
      vertex -69.5 -38.6 1
      vertex -69.127 -40.4751 1
    endloop
  endfacet
  facet normal 0 0 1
    outer loop
      vertex -67.05 -38.6 1
      vertex -69.5 38.6 1
      vertex -68.0648 -42.0648 1
    endloop
  endfacet
  facet normal 0 0 1
    outer loop
      vertex -68.0648 -42.0648 1
      vertex -69.5 38.6 1
      vertex -69.127 -40.4751 1
    endloop
  endfacet
  facet normal 0 0 1
    outer loop
      vertex -67.05 -38.6 1
      vertex -66.3324 -36.8676 1
      vertex -69.5 38.6 1
    endloop
  endfacet
  facet normal 0 0 1
    outer loop
      vertex -62.8676 -40.3324 1
      vertex -64.6 -41.05 1
      vertex -64.6 -43.5 1
    endloop
  endfacet
  facet normal 0 0 1
    outer loop
      vertex 66.4751 -43.127 1
      vertex -69.5 38.6 1
      vertex 64.6 -43.5 1
    endloop
  endfacet
  facet normal 0 0 1
    outer loop
      vertex 62.8676 -40.3324 1
      vertex -69.5 38.6 1
      vertex 66.4751 -43.127 1
    endloop
  endfacet
  facet normal 0 0 1
    outer loop
      vertex 66.3324 -36.8676 1
      vertex 67.05 -38.6 1
      vertex 69.5 -38.6 1
    endloop
  endfacet
  facet normal 0 0 1
    outer loop
      vertex -66.3324 36.8676 1
      vertex -69.5 38.6 1
      vertex 69.5 -38.6 1
    endloop
  endfacet
  facet normal 0 0 1
    outer loop
      vertex -67.05 38.6 1
      vertex -69.5 38.6 1
      vertex -66.3324 36.8676 1
    endloop
  endfacet
  facet normal 0 0 1
    outer loop
      vertex -62.15 38.6 1
      vertex -62.8676 36.8676 1
      vertex 62.15 38.6 1
    endloop
  endfacet
  facet normal 0 0 1
    outer loop
      vertex 66.3324 40.3324 1
      vertex 67.05 38.6 1
      vertex 69.127 40.4751 1
    endloop
  endfacet
  facet normal 0 0 1
    outer loop
      vertex -64.6 41.05 1
      vertex -62.8676 40.3324 1
      vertex 64.6 43.5 1
    endloop
  endfacet
  facet normal 0 0 1
    outer loop
      vertex -66.4751 43.127 1
      vertex -69.5 38.6 1
      vertex -64.6 43.5 1
    endloop
  endfacet
  facet normal 0 0 1
    outer loop
      vertex -68.0648 42.0648 1
      vertex -69.5 38.6 1
      vertex -66.4751 43.127 1
    endloop
  endfacet
  facet normal 0 0 1
    outer loop
      vertex -69.127 40.4751 1
      vertex -69.5 38.6 1
      vertex -68.0648 42.0648 1
    endloop
  endfacet
  facet normal 0 0 1
    outer loop
      vertex -64.6 -43.5 1
      vertex -66.3324 -40.3324 1
      vertex -66.4751 -43.127 1
    endloop
  endfacet
  facet normal 0 0 1
    outer loop
      vertex -66.4751 -43.127 1
      vertex -67.05 -38.6 1
      vertex -68.0648 -42.0648 1
    endloop
  endfacet
  facet normal 0 0 1
    outer loop
      vertex -66.3324 -36.8676 1
      vertex -64.6 -36.15 1
      vertex -69.5 38.6 1
    endloop
  endfacet
  facet normal 0 0 1
    outer loop
      vertex -66.3324 -40.3324 1
      vertex -67.05 -38.6 1
      vertex -66.4751 -43.127 1
    endloop
  endfacet
  facet normal 0 0 1
    outer loop
      vertex 64.6 -43.5 1
      vertex -69.5 38.6 1
      vertex -64.6 -36.15 1
    endloop
  endfacet
  facet normal 0 0 1
    outer loop
      vertex -62.8676 40.3324 1
      vertex 68.0648 42.0648 1
      vertex 66.4751 43.127 1
    endloop
  endfacet
  facet normal 0 0 1
    outer loop
      vertex 64.6 -43.5 1
      vertex -64.6 -36.15 1
      vertex -62.8676 -36.8676 1
    endloop
  endfacet
  facet normal 0 0 1
    outer loop
      vertex -62.8676 40.3324 1
      vertex 64.6 41.05 1
      vertex 68.0648 42.0648 1
    endloop
  endfacet
  facet normal 0 0 1
    outer loop
      vertex 64.6 -43.5 1
      vertex -62.8676 -36.8676 1
      vertex -62.15 -38.6 1
    endloop
  endfacet
  facet normal 0 0 1
    outer loop
      vertex 64.6 -43.5 1
      vertex -62.8676 -40.3324 1
      vertex -64.6 -43.5 1
    endloop
  endfacet
  facet normal 0 0 1
    outer loop
      vertex 64.6 -43.5 1
      vertex -62.15 -38.6 1
      vertex -62.8676 -40.3324 1
    endloop
  endfacet
  facet normal 0 0 1
    outer loop
      vertex -62.8676 40.3324 1
      vertex 66.4751 43.127 1
      vertex 64.6 43.5 1
    endloop
  endfacet
  facet normal 0 0 1
    outer loop
      vertex -64.6 36.15 1
      vertex -66.3324 36.8676 1
      vertex 69.5 -38.6 1
    endloop
  endfacet
  facet normal 0 0 1
    outer loop
      vertex 62.8676 36.8676 1
      vertex 62.15 38.6 1
      vertex -62.8676 36.8676 1
    endloop
  endfacet
  facet normal 0 0 1
    outer loop
      vertex 64.6 41.05 1
      vertex 66.3324 40.3324 1
      vertex 69.127 40.4751 1
    endloop
  endfacet
  facet normal 0 0 1
    outer loop
      vertex -64.6 43.5 1
      vertex -69.5 38.6 1
      vertex -66.3324 40.3324 1
    endloop
  endfacet
  facet normal 0 0 1
    outer loop
      vertex -64.6 43.5 1
      vertex -64.6 41.05 1
      vertex 64.6 43.5 1
    endloop
  endfacet
  facet normal 0 0 1
    outer loop
      vertex -64.6 43.5 1
      vertex -66.3324 40.3324 1
      vertex -64.6 41.05 1
    endloop
  endfacet
  facet normal 0 0 1
    outer loop
      vertex 62.15 -38.6 1
      vertex 62.8676 -36.8676 1
      vertex -69.5 38.6 1
    endloop
  endfacet
  facet normal 0 0 1
    outer loop
      vertex 62.8676 36.8676 1
      vertex -62.8676 36.8676 1
      vertex 69.5 -38.6 1
    endloop
  endfacet
  facet normal 0 0 1
    outer loop
      vertex -62.8676 36.8676 1
      vertex -64.6 36.15 1
      vertex 69.5 -38.6 1
    endloop
  endfacet
  facet normal 0 0 1
    outer loop
      vertex 64.6 -41.05 1
      vertex 62.8676 -40.3324 1
      vertex 66.4751 -43.127 1
    endloop
  endfacet
  facet normal 0 0 1
    outer loop
      vertex 62.15 -38.6 1
      vertex -69.5 38.6 1
      vertex 62.8676 -40.3324 1
    endloop
  endfacet
  facet normal 0 0 1
    outer loop
      vertex 64.6 -36.15 1
      vertex -69.5 38.6 1
      vertex 62.8676 -36.8676 1
    endloop
  endfacet
  facet normal 0 0 1
    outer loop
      vertex 67.05 -38.6 1
      vertex 66.3324 -40.3324 1
      vertex 69.127 -40.4751 1
    endloop
  endfacet
  facet normal 0 0 1
    outer loop
      vertex 66.3324 -36.8676 1
      vertex -69.5 38.6 1
      vertex 64.6 -36.15 1
    endloop
  endfacet
  facet normal 0 0 1
    outer loop
      vertex 66.3324 -40.3324 1
      vertex 64.6 -41.05 1
      vertex 68.0648 -42.0648 1
    endloop
  endfacet
  facet normal 0 0 1
    outer loop
      vertex 69.5 -38.6 1
      vertex -69.5 38.6 1
      vertex 66.3324 -36.8676 1
    endloop
  endfacet
  facet normal 0 0 1
    outer loop
      vertex 69.5 -38.6 1
      vertex 67.05 -38.6 1
      vertex 69.127 -40.4751 1
    endloop
  endfacet
  facet normal 0 0 1
    outer loop
      vertex 69.127 -40.4751 1
      vertex 66.3324 -40.3324 1
      vertex 68.0648 -42.0648 1
    endloop
  endfacet
  facet normal 0 0 1
    outer loop
      vertex 68.0648 -42.0648 1
      vertex 64.6 -41.05 1
      vertex 66.4751 -43.127 1
    endloop
  endfacet
  facet normal 0 0 1
    outer loop
      vertex 64.6 36.15 1
      vertex 62.8676 36.8676 1
      vertex 69.5 -38.6 1
    endloop
  endfacet
  facet normal 0 0 1
    outer loop
      vertex 62.8676 40.3324 1
      vertex 64.6 41.05 1
      vertex -62.8676 40.3324 1
    endloop
  endfacet
  facet normal 0 0 1
    outer loop
      vertex 62.8676 40.3324 1
      vertex -62.15 38.6 1
      vertex 62.15 38.6 1
    endloop
  endfacet
  facet normal 0 0 1
    outer loop
      vertex 68.0648 42.0648 1
      vertex 64.6 41.05 1
      vertex 69.127 40.4751 1
    endloop
  endfacet
  facet normal 0 0 1
    outer loop
      vertex 67.05 38.6 1
      vertex 66.3324 36.8676 1
      vertex 69.5 38.6 1
    endloop
  endfacet
  facet normal 0 0 1
    outer loop
      vertex 69.127 40.4751 1
      vertex 67.05 38.6 1
      vertex 69.5 38.6 1
    endloop
  endfacet
  facet normal 0 0 1
    outer loop
      vertex 69.5 38.6 1
      vertex 66.3324 36.8676 1
      vertex 69.5 -38.6 1
    endloop
  endfacet
  facet normal 0 0 1
    outer loop
      vertex 66.3324 36.8676 1
      vertex 64.6 36.15 1
      vertex 69.5 -38.6 1
    endloop
  endfacet
  facet normal 0 0 1
    outer loop
      vertex -64.6 -41.05 1
      vertex -66.3324 -40.3324 1
      vertex -64.6 -43.5 1
    endloop
  endfacet
  facet normal 0 0 1
    outer loop
      vertex 62.8676 40.3324 1
      vertex -62.8676 40.3324 1
      vertex -62.15 38.6 1
    endloop
  endfacet
  facet normal 0 0 1
    outer loop
      vertex -67.05 38.6 1
      vertex -66.3324 40.3324 1
      vertex -69.5 38.6 1
    endloop
  endfacet
endsolid OpenSCAD_Model
